# Exported from Wings 3D 1.4.1
mtllib rat.mtl
o cube1
#166 vertices, 153 faces
v -0.54402709 -1.00000000 -0.91804590
v -0.54402709 1.00000000 -0.91804590
v 1.00000000 1.00000000 -0.91804590
v 1.00000000 -1.00000000 -0.91804590
v -1.00000000 -1.00000000 -1.82748590
v -1.00000000 1.00000000 -1.82748590
v 1.00000000 1.00000000 -1.82748590
v 1.00000000 -1.00000000 -1.82748590
v -0.14602709 1.00000000 0.43117650
v -0.14602709 -1.00000000 0.43117650
v 0.60200000 -1.00000000 0.43117650
v 0.60200000 1.00000000 0.43117650
v -2.47161088 -1.00000000 -1.08265454
v -2.47161088 1.00000000 -1.08265454
v -2.47161088 1.00000000 -1.66287726
v -2.47161088 -1.00000000 -1.66287726
v 0.60200000 1.00000000 4.78250610
v -0.57806603 1.00000000 4.78250610
v -0.57806603 -1.00000000 4.78250610
v 0.60200000 -1.00000000 4.78250610
v 0.60200000 1.00000000 5.62351939
v -0.57806603 1.00000000 5.62351939
v -0.57806603 -1.00000000 5.62351939
v 0.60200000 -1.00000000 5.62351939
v 1.88180282 1.00000000 6.05326720
v 1.88180282 -1.00000000 6.05326720
v 1.88180282 -1.00000000 5.21225392
v 1.88180282 1.00000000 5.21225392
v -2.49757081 1.00000000 5.28033278
v -2.49757081 -1.00000000 5.28033278
v -2.49757081 -1.00000000 6.58087838
v -2.49757081 1.00000000 6.58087838
v -3.19644288 1.00000000 5.28033278
v -3.19644288 -1.00000000 5.28033278
v -3.73735071 -1.00000000 6.58087838
v -3.73735071 1.00000000 6.58087838
v -5.08040921 0.68200000 3.73410510
v -5.08040921 -0.68200000 3.73410510
v -5.44930835 -0.68200000 4.62107720
v -5.44930835 0.68200000 4.62107720
v 2.60360504 0.90632768 -1.73381358
v 2.60360504 -0.90632768 -1.73381358
v 2.60360504 -0.90632768 -1.01171822
v 2.60360504 0.90632768 -1.01171822
v -0.24612500 0.41317180 -2.33209629
v -0.24612500 0.90542180 -2.33209629
v 0.24612500 0.90542180 -2.33209629
v 0.24612500 0.41317180 -2.33209629
v -0.33562500 0.65929680 -2.33209629
v 0.0000000e+0 0.99492180 -2.33209629
v 0.33562500 0.65929680 -2.33209629
v 0.0000000e+0 0.32367180 -2.33209629
v -1.00000000 0.0000000e+0 -1.82748590
v 0.0000000e+0 1.00000000 -1.82748590
v 1.00000000 0.0000000e+0 -1.82748590
v 0.0000000e+0 -1.00000000 -1.82748590
v -0.31325000 0.79354680 -2.33209629
v 0.13425000 0.97254680 -2.33209629
v 0.31325000 0.52504680 -2.33209629
v -0.13425000 0.34604680 -2.33209629
v -0.31325000 0.52504680 -2.33209629
v -0.13425000 0.97254680 -2.33209629
v 0.31325000 0.79354680 -2.33209629
v 0.13425000 0.34604680 -2.33209629
v -1.00000000 -0.50000000 -1.82748590
v -0.50000000 1.00000000 -1.82748590
v 1.00000000 0.50000000 -1.82748590
v 0.50000000 -1.00000000 -1.82748590
v -1.00000000 0.50000000 -1.82748590
v 0.50000000 1.00000000 -1.82748590
v 1.00000000 -0.50000000 -1.82748590
v -0.50000000 -1.00000000 -1.82748590
v 0.20674500 0.74790180 -3.27376509
v 0.22151250 0.65929680 -3.27376509
v 0.20674500 0.57069180 -3.27376509
v 0.16244250 0.49685430 -3.27376509
v 8.8605000e-2 0.45255180 -3.27376509
v 1.4986937e-16 0.43778430 -3.27376509
v -8.8605000e-2 0.45255180 -3.27376509
v -0.16244250 0.49685430 -3.27376509
v -0.20674500 0.57069180 -3.27376509
v -0.22151250 0.65929680 -3.27376509
v -0.20674500 0.74790180 -3.27376509
v -0.16244250 0.82173930 -3.27376509
v -8.8605000e-2 0.86604180 -3.27376509
v 1.4986937e-16 0.88080930 -3.27376509
v 8.8605000e-2 0.86604180 -3.27376509
v 0.16244250 0.82173930 -3.27376509
v 0.75221956 1.25218345 -4.39296161
v 0.76698706 1.16357845 -4.39296161
v 0.75221956 1.07497345 -4.39296161
v 0.70791706 1.00113595 -4.39296161
v 0.63407956 0.95683345 -4.39296161
v 0.54547456 0.94206595 -4.39296161
v 0.45686956 0.95683345 -4.39296161
v 0.38303206 1.00113595 -4.39296161
v 0.33872956 1.07497345 -4.39296161
v 0.32396206 1.16357845 -4.39296161
v 0.33872956 1.25218345 -4.39296161
v 0.38303206 1.32602095 -4.39296161
v 0.45686956 1.37032345 -4.39296161
v 0.54547456 1.38509095 -4.39296161
v 0.63407956 1.37032345 -4.39296161
v 0.70791706 1.32602095 -4.39296161
v -0.26652073 1.21620982 -5.78175485
v -0.25740867 1.16378256 -5.78567391
v -0.26557872 1.11151229 -5.79260763
v -0.29110940 1.06812382 -5.80165162
v -0.33407921 1.04234193 -5.81190147
v -0.38584707 1.03408814 -5.82184986
v -0.43777194 1.04328394 -5.82998944
v -0.48121274 1.06985083 -5.83481290
v -0.50752843 1.11371030 -5.83481290
v -0.51664049 1.16613757 -5.83089384
v -0.50847043 1.21840784 -5.82396012
v -0.48293975 1.26179631 -5.81491613
v -0.43996995 1.28757819 -5.80466628
v -0.38820209 1.29583198 -5.79471789
v -0.33627722 1.28663619 -5.78657831
v -0.29283642 1.26006930 -5.78175485
v -0.34487130 0.43907286 -6.80630952
v -0.34169587 0.42002030 -6.80630952
v -0.34487130 0.40096775 -6.80630952
v -0.35439757 0.38509062 -6.80630952
v -0.37027470 0.37556434 -6.80630952
v -0.38932726 0.37238891 -6.80630952
v -0.40837982 0.37556434 -6.80630952
v -0.42425695 0.38509062 -6.80630952
v -0.43378322 0.40096775 -6.80630952
v -0.43695865 0.42002030 -6.80630952
v -0.43378322 0.43907286 -6.80630952
v -0.42425695 0.45494999 -6.80630952
v -0.40837982 0.46447627 -6.80630952
v -0.38932726 0.46765169 -6.80630952
v -0.37027470 0.46447627 -6.80630952
v -0.35439757 0.45494999 -6.80630952
v 0.56043321 1.29304513 -4.97056993
v 0.50158473 1.32835422 -4.97056993
v 0.43096654 1.34012392 -4.97056993
v 0.36034836 1.32835422 -4.97056993
v 0.30149987 1.29304513 -4.97056993
v 0.26619078 1.23419664 -4.97056993
v 0.25442108 1.16357845 -4.97056993
v 0.26619078 1.09296027 -4.97056993
v 0.30149987 1.03411178 -4.97056993
v 0.43096654 0.98703299 -4.97056993
v 0.50158473 0.99880269 -4.97056993
v 0.56043321 1.03411178 -4.97056993
v 0.59574231 1.09296027 -4.97056993
v 0.60751200 1.16357845 -4.97056993
v 0.59574231 1.23419664 -4.97056993
v 0.16461079 1.22520323 -5.25937409
v 0.17488158 1.16357845 -5.25937409
v 0.16461079 1.10195368 -5.25937409
v 0.13379840 1.05059970 -5.25937409
v 8.2444417e-2 1.01978731 -5.25937409
v 2.0819640e-2 1.00951651 -5.25937409
v -9.2159119e-2 1.05059970 -5.25937409
v -0.12297151 1.10195368 -5.25937409
v -0.13324230 1.16357845 -5.25937409
v -0.12297151 1.22520323 -5.25937409
v -9.2159119e-2 1.27655721 -5.25937409
v -4.0805138e-2 1.30736960 -5.25937409
v 2.0819640e-2 1.31764040 -5.25937409
v 8.2444417e-2 1.30736960 -5.25937409
v 0.13379840 1.27655721 -5.25937409
vn -0.30493043 -0.87604661 0.37357700
vn -0.30493043 0.87604661 0.37357700
vn 0.31331941 0.87325955 0.37316043
vn 0.31331941 -0.87325955 0.37316043
vn -0.17548931 -0.63897818 -0.74893951
vn -0.21279373 0.81031461 -0.54599364
vn 0.21412690 0.80937345 -0.54686771
vn 0.17679936 -0.63796809 -0.74949230
vn -0.69736812 0.71369493 6.5705804e-2
vn -0.69736812 -0.71369493 6.5705804e-2
vn 0.69622571 -0.71074623 0.10054631
vn 0.69622571 0.71074623 0.10054631
vn -0.60942873 -0.56164060 0.55960384
vn -0.60942873 0.56164060 0.55960384
vn -0.61900334 0.55707707 -0.55362442
vn -0.61900334 -0.55707707 -0.55362442
vn 0.38646348 0.87944214 -0.27789835
vn -0.36445770 0.87739881 -0.31199667
vn -0.36445770 -0.87739881 -0.31199667
vn 0.38646348 -0.87944214 -0.27789835
vn -0.11328385 0.71174993 0.69323791
vn 0.15991360 0.71658604 0.67891979
vn 0.15991360 -0.71658604 0.67891979
vn -0.11328385 -0.71174993 0.69323791
vn 0.44341809 0.65048300 0.61664598
vn 0.44341809 -0.65048300 0.61664598
vn 0.69130820 -0.52438380 -0.49710624
vn 0.69130820 0.52438380 -0.49710624
vn -8.9115596e-2 0.70995451 -0.69858643
vn -8.9115596e-2 -0.70995451 -0.69858643
vn 0.15991360 -0.71658604 0.67891979
vn 0.15991360 0.71658604 0.67891979
vn 0.18546919 0.72438053 -0.66398345
vn 0.18546919 -0.72438053 -0.66398345
vn -0.32459584 -0.73617271 0.59387480
vn -0.32459584 0.73617271 0.59387480
vn -0.25580318 0.61282358 -0.74767105
vn -0.25580318 -0.61282358 -0.74767105
vn -0.87110629 -0.47921330 0.10737057
vn -0.87110629 0.47921330 0.10737057
vn 0.62034356 0.55460521 -0.55460521
vn 0.62034356 -0.55460521 -0.55460521
vn 0.62034356 -0.55460521 0.55460521
vn 0.62034356 0.55460521 0.55460521
vn -0.57812851 -0.53016518 -0.62023569
vn -0.60158312 0.70309560 -0.37914948
vn 0.60158312 0.70309560 -0.37914948
vn 0.57812851 -0.53016518 -0.62023569
vn -0.86288405 2.5331513e-4 -0.50540187
vn 0.0000000e+0 0.99659490 -8.2453630e-2
vn 0.86288405 2.5331513e-4 -0.50540187
vn 0.0000000e+0 -0.78391348 -0.62087008
vn -0.44737693 3.1787494e-4 -0.89434545
vn 0.0000000e+0 0.99955041 -2.9982953e-2
vn 0.43205527 3.1998800e-4 -0.90184707
vn 0.0000000e+0 -0.67322711 -0.73943577
vn -0.83394539 0.20975733 -0.51042820
vn 0.20814426 0.96907538 -0.13254761
vn 0.81789813 -0.21011114 -0.53562670
vn -0.21471054 -0.74669179 -0.62956394
vn -0.81789813 -0.21011114 -0.53562670
vn -0.20814426 0.96907538 -0.13254761
vn 0.83394539 0.20975733 -0.51042820
vn 0.21471054 -0.74669179 -0.62956394
vn -0.41047711 -2.6061666e-2 -0.91149840
vn -4.7373959e-2 0.99447080 -9.3720550e-2
vn 0.43092413 2.9394656e-2 -0.90190928
vn 1.9287012e-2 -0.66691122 -0.74488753
vn -0.44626270 2.9201142e-2 -0.89442546
vn 4.7373959e-2 0.99447080 -9.3720550e-2
vn 0.39472782 -2.6215482e-2 -0.91842403
vn -1.9287012e-2 -0.66691122 -0.74488753
vn 0.91760313 0.33591586 0.21252065
vn 0.98630664 -2.2530856e-3 0.16490647
vn 0.93419915 -0.34688488 8.3323629e-2
vn 0.70586319 -0.70655975 -5.0303877e-2
vn 0.34195612 -0.92171324 -0.18305935
vn 2.2767770e-3 -0.96351473 -0.26764561
vn -0.32516985 -0.88911300 -0.32209103
vn -0.66247215 -0.66290864 -0.34883060
vn -0.88649155 -0.32452655 -0.32987156
vn -0.95931560 2.1914282e-3 -0.28232744
vn -0.91765010 0.34073992 -0.20448619
vn -0.70474345 0.70543891 -7.5449471e-2
vn -0.34717593 0.93578278 6.1477337e-2
vn -2.3363290e-3 0.98871666 0.14977950
vn 0.33621983 0.91932699 0.20443610
vn 0.68795351 0.68840679 0.22981745
vn 0.92899838 0.34038667 0.14525470
vn 0.99584623 -2.3091156e-3 9.1021697e-2
vn 0.93724165 -0.34836627 1.4799626e-2
vn 0.70284077 -0.70475882 -9.6591176e-2
vn 0.34073941 -0.91974379 -0.19485383
vn 2.0759400e-3 -0.96903084 -0.24693101
vn -0.33466387 -0.91606594 -0.22095993
vn -0.68206585 -0.68287554 -0.26166231
vn -0.91596255 -0.33548136 -0.22014738
vn -0.98624261 2.2528317e-3 -0.16528896
vn -0.93350724 0.34678513 -9.1127971e-2
vn -0.70648043 0.70752284 1.7229184e-2
vn -0.34546644 0.93106379 0.11735912
vn -2.5367819e-3 0.98525503 0.17107335
vn 0.33656891 0.92170735 0.19281321
vn 0.69403557 0.69579685 0.18488202
vn 0.82421463 0.31259809 -0.47217864
vn 0.92475699 2.1482845e-2 -0.37995131
vn 0.91595468 -0.31824659 -0.24443023
vn 0.70176757 -0.71025978 -5.5256807e-2
vn 0.31227414 -0.94035141 0.13499664
vn -8.7440111e-2 -0.94690308 0.30940068
vn -0.35278844 -0.83374907 0.42473851
vn -0.62719409 -0.67445690 0.38953237
vn -0.87324669 -0.32895263 0.35948629
vn -0.96692134 -1.5424808e-2 0.25460793
vn -0.93468733 0.33583658 0.11650485
vn -0.69276089 0.71863625 -6.0368052e-2
vn -0.29590814 0.92705696 -0.23022547
vn 4.7701747e-2 0.93182695 -0.35975419
vn 0.34289024 0.81933161 -0.45948014
vn 0.62058969 0.59813006 -0.50705904
vn 0.70631450 0.26145158 -0.65784717
vn 0.85677600 7.2246991e-3 -0.51563814
vn 0.88305278 -0.33591376 -0.32768848
vn 0.66859226 -0.73551458 -0.10955683
vn 0.26045123 -0.96479256 3.6612389e-2
vn -8.9908882e-2 -0.99398474 6.2535798e-2
vn -0.40733956 -0.91307560 1.9168372e-2
vn -0.72420275 -0.67893447 -0.12074089
vn -0.88888866 -0.32700540 -0.32084952
vn -0.85898187 7.1200617e-4 -0.51200550
vn -0.68625340 0.27401678 -0.67377376
vn -0.40511288 0.46780943 -0.78551759
vn -0.13393057 0.55028112 -0.82416824
vn 6.1411532e-2 0.56079463 -0.82567428
vn 0.24620761 0.53373535 -0.80901693
vn 0.47664256 0.44189572 -0.75996055
vn 0.60675739 0.62333318 -0.49325573
vn 0.31932107 0.89364094 -0.31534096
vn -1.5965876e-3 0.99713577 -7.5615580e-2
vn -0.33310555 0.92588567 0.17825941
vn -0.64410081 0.66108725 0.38483477
vn -0.82097169 0.30552746 0.48234682
vn -0.86431770 0.0000000e+0 0.50294624
vn -0.82097169 -0.30552746 0.48234682
vn -0.57152383 -0.77568968 0.26770513
vn -0.10567418 -0.99416858 -2.1489541e-2
vn 0.31932107 -0.89364094 -0.31534096
vn 0.60675739 -0.62333318 -0.49325573
vn 0.76932543 -0.28625193 -0.57113765
vn 0.80957989 0.0000000e+0 -0.58700971
vn 0.76932543 0.28625193 -0.57113765
vn 0.64624652 0.24865467 -0.72148201
vn 0.67127221 1.6394446e-2 -0.74102958
vn 0.65542021 -0.22096443 -0.72221816
vn 0.55569198 -0.54749678 -0.62566261
vn 0.31860346 -0.86396283 -0.38994880
vn -9.0507094e-2 -0.99525548 3.5706992e-2
vn -0.53092453 -0.68888378 0.49351624
vn -0.69910078 -0.26779292 0.66298194
vn -0.72382572 -1.5041355e-2 0.68981887
vn -0.70125436 0.24013846 0.67124946
vn -0.58795204 0.58367732 0.56002963
vn -0.32960884 0.89750447 0.29299101
vn 1.3258744e-3 0.99821088 -5.9777007e-2
vn 0.31549754 0.86370012 -0.39304377
vn 0.54399780 0.55947232 -0.62534559
g cube1_default
usemtl default
s 1
f 1//1 5//5 72//72 56//56 68//68 8//8 4//4
f 1//1 10//10 9//9 2//2
f 1//1 13//13 16//16 5//5
f 2//2 9//9 12//12 3//3
f 2//2 14//14 13//13 1//1
f 3//3 7//7 70//70 54//54 66//66 6//6 2//2
f 3//3 12//12 11//11 4//4
f 3//3 44//44 41//41 7//7
f 4//4 11//11 10//10 1//1
f 4//4 43//43 44//44 3//3
f 5//5 16//16 15//15 6//6 69//69 53//53 65//65
f 5//5 45//45 60//60 72//72
f 6//6 15//15 14//14 2//2
f 7//7 41//41 42//42 8//8 71//71 55//55 67//67
f 8//8 42//42 43//43 4//4
f 8//8 68//68 64//64 48//48
f 9//9 18//18 17//17 12//12
f 10//10 19//19 18//18 9//9
f 11//11 20//20 19//19 10//10
f 12//12 17//17 20//20 11//11
f 14//14 15//15 16//16 13//13
f 17//17 28//28 27//27 20//20
f 18//18 22//22 21//21 17//17
f 18//18 29//29 32//32 22//22
f 19//19 30//30 29//29 18//18
f 20//20 24//24 23//23 19//19
f 20//20 27//27 26//26 24//24
f 21//21 25//25 28//28 17//17
f 22//22 23//23 24//24 21//21
f 22//22 32//32 31//31 23//23
f 23//23 31//31 30//30 19//19
f 24//24 26//26 25//25 21//21
f 26//26 27//27 28//28 25//25
f 29//29 33//33 36//36 32//32
f 30//30 34//34 33//33 29//29
f 31//31 35//35 34//34 30//30
f 32//32 36//36 35//35 31//31
f 33//33 37//37 40//40 36//36
f 34//34 38//38 37//37 33//33
f 35//35 39//39 38//38 34//34
f 36//36 40//40 39//39 35//35
f 38//38 39//39 40//40 37//37
f 43//43 42//42 41//41 44//44
f 45//45 80//80 79//79 60//60
f 46//46 84//84 83//83 57//57
f 47//47 88//88 87//87 58//58
f 48//48 76//76 75//75 59//59
f 49//49 82//82 81//81 61//61
f 50//50 86//86 85//85 62//62
f 51//51 74//74 73//73 63//63
f 52//52 78//78 77//77 64//64
f 56//56 72//72 60//60 52//52
f 57//57 69//69 6//6 46//46
f 57//57 83//83 82//82 49//49
f 58//58 70//70 7//7 47//47
f 58//58 87//87 86//86 50//50
f 59//59 71//71 8//8 48//48
f 59//59 75//75 74//74 51//51
f 60//60 79//79 78//78 52//52
f 61//61 65//65 53//53 49//49
f 61//61 81//81 80//80 45//45
f 62//62 66//66 54//54 50//50
f 62//62 85//85 84//84 46//46
f 63//63 67//67 55//55 51//51
f 63//63 73//73 88//88 47//47
f 64//64 68//68 56//56 52//52
f 64//64 77//77 76//76 48//48
f 65//65 61//61 45//45 5//5
f 66//66 62//62 46//46 6//6
f 67//67 63//63 47//47 7//7
f 69//69 57//57 49//49 53//53
f 70//70 58//58 50//50 54//54
f 71//71 59//59 51//51 55//55
f 73//73 89//89 104//104 88//88
f 74//74 90//90 89//89 73//73
f 75//75 91//91 90//90 74//74
f 76//76 92//92 91//91 75//75
f 77//77 93//93 92//92 76//76
f 78//78 94//94 93//93 77//77
f 79//79 95//95 94//94 78//78
f 80//80 96//96 95//95 79//79
f 81//81 97//97 96//96 80//80
f 82//82 98//98 97//97 81//81
f 83//83 99//99 98//98 82//82
f 84//84 100//100 99//99 83//83
f 85//85 101//101 100//100 84//84
f 86//86 102//102 101//101 85//85
f 87//87 103//103 102//102 86//86
f 88//88 104//104 103//103 87//87
f 89//89 151//151 137//137 104//104
f 90//90 150//150 151//151 89//89
f 91//91 149//149 150//150 90//90
f 92//92 148//148 149//149 91//91
f 93//93 147//147 148//148 92//92
f 94//94 146//146 147//147 93//93
f 95//95 146//146 94//94
f 96//96 145//145 95//95
f 97//97 144//144 145//145 96//96
f 98//98 143//143 144//144 97//97
f 99//99 142//142 143//143 98//98
f 100//100 141//141 142//142 99//99
f 101//101 140//140 141//141 100//100
f 102//102 139//139 140//140 101//101
f 103//103 138//138 139//139 102//102
f 104//104 137//137 138//138 103//103
f 105//105 121//121 136//136 120//120
f 105//105 152//152 153//153 106//106
f 106//106 122//122 121//121 105//105
f 106//106 153//153 154//154 107//107
f 107//107 123//123 122//122 106//106
f 107//107 154//154 155//155 108//108
f 108//108 124//124 123//123 107//107
f 108//108 155//155 156//156 109//109
f 109//109 125//125 124//124 108//108
f 109//109 156//156 157//157 110//110
f 110//110 126//126 125//125 109//109
f 110//110 157//157 158//158 112//112 111//111
f 111//111 127//127 126//126 110//110
f 112//112 128//128 127//127 111//111
f 112//112 158//158 159//159 113//113
f 113//113 129//129 128//128 112//112
f 113//113 159//159 160//160 114//114
f 114//114 130//130 129//129 113//113
f 114//114 160//160 161//161 115//115
f 115//115 131//131 130//130 114//114
f 115//115 161//161 162//162 116//116
f 116//116 132//132 131//131 115//115
f 116//116 162//162 163//163 117//117
f 117//117 133//133 132//132 116//116
f 117//117 163//163 164//164 118//118
f 118//118 134//134 133//133 117//117
f 118//118 164//164 165//165 119//119
f 119//119 135//135 134//134 118//118
f 119//119 165//165 166//166 120//120
f 120//120 136//136 135//135 119//119
f 120//120 166//166 152//152 105//105
f 122//122 123//123 124//124 125//125 126//126 127//127 128//128 129//129 130//130 131//131 132//132 133//133 134//134 135//135 136//136 121//121
f 137//137 151//151 152//152 166//166
f 146//146 95//95 145//145
f 153//153 152//152 151//151 150//150
f 154//154 153//153 150//150 149//149
f 155//155 154//154 149//149 148//148
f 156//156 155//155 148//148 147//147
f 157//157 156//156 147//147 146//146
f 158//158 157//157 146//146 145//145
f 159//159 158//158 145//145 144//144
f 160//160 159//159 144//144 143//143
f 161//161 160//160 143//143 142//142
f 162//162 161//161 142//142 141//141
f 163//163 162//162 141//141 140//140
f 164//164 163//163 140//140 139//139
f 165//165 164//164 139//139 138//138
f 166//166 165//165 138//138 137//137
